<svg width="120" height="120" viewBox="0 0 120 120" fill="none" xmlns="http://www.w3.org/2000/svg">
<path d="M67.4571 33.1605C67.9974 33.3103 68.5026 33.5642 68.9438 33.9076C69.385 34.251 69.7537 34.6772 70.0286 35.1618C70.3035 35.6464 70.4794 36.18 70.5461 36.7321C70.6128 37.2841 70.5691 37.8437 70.4174 38.379L57.8046 82.9107C57.4989 83.9913 56.7725 84.9074 55.7852 85.4573C54.7979 86.0071 53.6306 86.1459 52.5401 85.8429C51.4496 85.5399 50.5252 84.82 49.9703 83.8416C49.4154 82.8632 49.2754 81.7065 49.5811 80.6258L62.1939 36.0885C62.3454 35.5534 62.6018 35.053 62.9484 34.6161C63.2951 34.1791 63.7252 33.8142 64.2142 33.542C64.7032 33.2698 65.2416 33.0958 65.7985 33.0299C66.3554 32.9639 66.92 33.0074 67.4599 33.1577L67.4571 33.1605ZM47.3609 44.5424C48.1605 45.3357 48.6096 46.4112 48.6096 47.5324C48.6096 48.6537 48.1605 49.7291 47.3609 50.5225L38.3091 59.501L47.3666 68.4767C48.1672 69.2705 48.6168 70.3469 48.6166 71.4692C48.6163 72.5914 48.1661 73.6676 47.3652 74.461C46.5642 75.2544 45.478 75.7 44.3455 75.6997C43.213 75.6994 42.1269 75.2534 41.3263 74.4596L29.2487 62.491C28.4491 61.6977 28 60.6223 28 59.501C28 58.3797 28.4491 57.3043 29.2487 56.511L41.3235 44.5424C41.72 44.1492 42.1908 43.8373 42.709 43.6245C43.2272 43.4117 43.7827 43.3022 44.3436 43.3022C44.9046 43.3022 45.46 43.4117 45.9782 43.6245C46.4964 43.8373 46.9644 44.1492 47.3609 44.5424ZM72.6377 50.5225C72.2182 50.1351 71.8817 49.668 71.6484 49.149C71.415 48.6299 71.2895 48.0696 71.2794 47.5015C71.2693 46.9334 71.3747 46.3691 71.5895 45.8422C71.8042 45.3154 72.1239 44.8368 72.5293 44.435C72.9348 44.0332 73.4177 43.7165 73.9494 43.5037C74.481 43.2909 75.0505 43.1863 75.6238 43.1964C76.1971 43.2064 76.7625 43.3307 77.2862 43.562C77.81 43.7933 78.2813 44.1267 78.6722 44.5424L90.7499 56.5082C91.5503 57.3016 92 58.3776 92 59.4996C92 60.6215 91.5503 61.6976 90.7499 62.491L78.6751 74.4596C78.2787 74.8526 77.808 75.1644 77.29 75.3772C76.772 75.59 76.2167 75.6996 75.656 75.6997C75.0952 75.6998 74.5399 75.5905 74.0218 75.378C73.5037 75.1654 73.0329 74.8539 72.6363 74.461C72.2397 74.0682 71.925 73.6018 71.7103 73.0884C71.4956 72.5751 71.385 72.0249 71.3849 71.4692C71.3847 70.9135 71.4951 70.3632 71.7095 69.8498C71.924 69.3363 72.2384 68.8698 72.6348 68.4767L81.6924 59.501L72.6377 50.5225Z" fill="#FFDB70"/>
</svg>
